Coordinates
version=1
nRows=26
nColumns=18
inDegrees=yes

Units are S.I. units (second, meters, Newtons, ...)
If the header above contains a line with 'inDegrees', this indicates whether rotational values are in degrees (yes) or radians (no).

endheader
time	ground_thorax_rot_x	ground_thorax_rot_y	ground_thorax_rot_z	ground_thorax_tx	ground_thorax_ty	ground_thorax_tz	clav_prot	clav_elev	scapula_abduction	scapula_elevation	scapula_upward_rot	scapula_winging	plane_elv	shoulder_elv	axial_rot	elbow_flexion	pro_sup
      2.00000000	     -3.40837864	    -18.58195657	     -0.09836848	     -0.06140634	      0.05009975	      0.02937506	    -27.79917378	     -5.57666282	      3.69570493	    -12.24428104	     52.72778182	     15.80754946	    -17.00000000	     50.85907198	     12.26243012	      0.00120871	     -0.00000000
      2.02000000	     -3.38808746	    -18.53103123	     -0.52880237	     -0.06071753	      0.04945116	      0.02971438	    -27.78758675	     -5.98126727	      3.65124332	    -12.49888221	     52.52593619	     16.00794990	    -17.00000000	     51.01132466	     12.67935448	      0.00120871	     -0.00000000
      2.04000000	     -3.79876506	    -18.58475342	     -0.58783478	     -0.06016005	      0.04951115	      0.02974928	    -27.47738307	     -6.74099205	      3.47609932	    -12.92921771	     51.49347605	     16.39886153	    -17.00000000	     51.16989479	     14.18228576	      0.00120871	     -0.00000000
      2.06000000	     -3.67769521	    -18.53786121	     -0.66896076	     -0.05968171	      0.04885170	      0.03003691	    -27.31977461	     -6.73818424	      3.46898073	    -12.90319522	     51.19110118	     16.39856984	    -17.00000000	     51.09081377	     14.00872299	      0.00120871	     -0.00000000
      2.08000000	     -3.49004175	    -18.40538595	     -1.09340929	     -0.05896162	      0.04804957	      0.03029128	    -27.27004198	     -7.03442777	      3.41317990	    -13.08081376	     50.93422835	     16.55398958	    -17.00000000	     51.27036560	     14.19397099	      0.00120871	     -0.00000000
      2.10000000	     -3.89570505	    -18.39597880	     -1.18992752	     -0.05840149	      0.04802219	      0.03027208	    -26.91767596	     -7.86721142	      3.15631525	    -13.53630585	     49.68481917	     17.00719390	    -17.00000000	     51.47456960	     15.63893004	      0.00120871	     -0.00000000
      2.12000000	     -3.77172315	    -18.25118481	     -1.46192427	     -0.05776429	      0.04725996	      0.03052781	    -26.81294430	     -8.12213961	      3.03177721	    -13.67114588	     49.24924630	     17.15133786	    -17.00000000	     51.48818219	     15.80968542	      0.00120871	     -0.00000000
      2.14000000	     -3.89479487	    -18.11297392	     -1.57763747	     -0.05719830	      0.04695264	      0.03066695	    -26.63670128	     -8.67373591	      2.73125181	    -13.96604623	     48.35838022	     17.47059204	    -17.00000000	     51.48446638	     16.64749954	      0.00120871	     -0.00000000
      2.16000000	     -3.86606163	    -18.02018663	     -1.74919861	     -0.05668585	      0.04638798	      0.03086131	    -26.37331267	     -9.04586895	      2.60894348	    -14.14261644	     47.57976962	     17.68782555	    -17.00000000	     51.51880858	     17.23688009	      0.00120871	     -0.00000000
      2.18000000	     -3.60759087	    -17.93183973	     -1.89590305	     -0.05617821	      0.04553816	      0.03123944	    -26.15909146	     -9.04157917	      2.61027713	    -14.09883101	     47.17701960	     17.68695843	    -17.00000000	     51.30419444	     16.98811749	      0.00120871	     -0.00000000
      2.20000000	     -3.75430906	    -17.68963408	     -2.05455440	     -0.05562760	      0.04533289	      0.03146592	    -26.12636951	     -9.79160656	      2.09384303	    -14.51726497	     46.20438814	     18.14716436	    -17.00000000	     51.13938900	     18.21405411	      0.00120871	     -0.00000000
      2.22000000	     -3.45117039	    -17.58534481	     -2.22593828	     -0.05519234	      0.04445632	      0.03187282	    -25.89282015	     -9.78936331	      2.10197067	    -14.46830273	     45.77034528	     18.14774137	    -17.00000000	     50.88097594	     17.94412827	      0.00120871	     -0.00000000
      2.24000000	     -3.60343784	    -17.39544831	     -2.29093990	     -0.05474549	      0.04422644	      0.03209261	    -25.73024319	    -10.42838433	      1.63616915	    -14.78668965	     44.63988394	     18.55640212	    -17.00000000	     50.61900342	     19.40600720	      0.00120871	     -0.00000000
      2.26000000	     -3.25139654	    -17.27929285	     -2.48621917	     -0.05437022	      0.04337607	      0.03251766	    -25.48193274	    -10.43088078	      1.64692512	    -14.73378729	     44.17644571	     18.56015080	    -17.00000000	     50.31309940	     19.10819198	      0.00120871	     -0.00000000
      2.28000000	     -3.31933890	    -17.15824792	     -2.49232854	     -0.05392150	      0.04273787	      0.03299382	    -25.35742620	    -10.62627369	      1.29191892	    -14.78554235	     43.41320207	     18.70486789	    -17.00000000	     49.51489953	     19.36618828	      0.00120871	     -0.00000000
      2.30000000	     -3.28925087	    -16.85916889	     -2.57629780	     -0.05342969	      0.04273299	      0.03340595	    -25.45292083	    -11.28991983	      0.62707728	    -15.14282850	     42.49610077	     19.15859184	    -17.00000000	     48.98453710	     20.88191868	      0.00120871	     -0.00000000
      2.32000000	     -3.18342938	    -16.69058306	     -2.68199816	     -0.05295776	      0.04222657	      0.03393222	    -25.40179528	    -11.55304185	      0.24765062	    -15.24535165	     41.80718332	     19.35431210	    -17.00000000	     48.24946345	     21.28328219	      0.00120871	     -0.00000000
      2.34000000	     -3.02228110	    -16.57042495	     -2.76768434	     -0.05252913	      0.04160393	      0.03443277	    -25.24474456	    -11.65695597	     -0.01085612	    -15.23440848	     41.12688115	     19.44557983	    -17.00000000	     47.50383053	     21.28245577	      0.00120871	     -0.00000000
      2.36000000	     -2.97222386	    -16.28741761	     -2.88516509	     -0.05196762	      0.04130875	      0.03493056	    -25.37189681	    -12.09246063	     -0.68101567	    -15.44525758	     40.33198004	     19.77849272	    -17.00000000	     46.65214032	     22.16920432	      0.00120871	     -0.00000000
      2.38000000	     -2.80893508	    -16.17824257	     -2.99990108	     -0.05152675	      0.04056794	      0.03537541	    -25.15873286	    -12.11968929	     -0.90934760	    -15.36906728	     39.60430976	     19.82485526	    -17.00000000	     45.86023483	     22.03446814	      0.00120871	     -0.00000000
      2.40000000	     -2.80665262	    -15.89036503	     -3.15618273	     -0.05083728	      0.04031109	      0.03591379	    -25.36087384	    -12.64230217	     -1.69995529	    -15.63039147	     38.75074170	     20.23425335	    -17.00000000	     44.92006713	     22.91983267	      0.00120871	     -0.00000000
      2.42000000	     -2.72423836	    -15.68699941	     -3.25181424	     -0.05025966	      0.03991941	      0.03633101	    -25.31441719	    -12.93022106	     -2.25195981	    -15.70639287	     37.80810802	     20.48356464	    -17.00000000	     44.11155914	     23.42045797	      0.00120871	     -0.00000000
      2.44000000	     -2.57184033	    -15.56658670	     -3.42283965	     -0.04969221	      0.03913535	      0.03673742	    -25.11989811	    -12.98712209	     -2.54073622	    -15.63291783	     37.01166015	     20.56206346	    -17.00000000	     43.28842564	     23.29384664	      0.00120871	     -0.00000000
      2.46000000	     -2.62946256	    -15.26929776	     -3.57915744	     -0.04896934	      0.03892560	      0.03713385	    -25.25390006	    -13.57693844	     -3.40917635	    -15.88824459	     35.86184445	     21.04985401	    -17.00000000	     42.49185993	     24.18776768	      0.00120871	     -0.00000000
      2.48000000	     -2.48556387	    -15.14069305	     -3.77938554	     -0.04834925	      0.03805876	      0.03747692	    -25.03632580	    -13.63041905	     -3.70043455	    -15.79505787	     35.00483410	     21.13366962	    -17.00000000	     41.70551528	     24.06589201	      0.00120871	     -0.00000000
      2.50000000	     -2.58208695	    -14.83864900	     -3.96754789	     -0.04758328	      0.03785144	      0.03780416	    -25.14629700	    -14.30983597	     -4.61660985	    -16.07630452	     33.67612002	     21.70605279	    -17.00000000	     41.04829736	     25.01432822	      0.00120871	     -0.00000000
